<svg xmlns="http://www.w3.org/2000/svg" width="512" height="512" viewBox="0 0 512 512" fill="none" role="img" aria-labelledby="title desc">
  <title id="title">LFX gradient icon</title>
  <desc id="desc">Bold LFX lettering with a blue to purple diagonal gradient on a white background.</desc>
  <rect width="512" height="512" rx="115" ry="115" fill="white"/>
  <defs>
    <linearGradient id="lfxGradient" x1="64" y1="64" x2="448" y2="448" gradientUnits="userSpaceOnUse">
      <stop offset="0%" stop-color="#4DA3FF"/>
      <stop offset="100%" stop-color="#B052FF"/>
    </linearGradient>
    <filter id="softGlow" x="-20%" y="-20%" width="140%" height="140%">
      <feGaussianBlur stdDeviation="8" result="blur"/>
      <feColorMatrix in="blur" type="matrix"
        values="1 0 0 0 0
                0 1 0 0 0
                0 0 1 0 0
                0 0 0 0.18 0" result="glow"/>
      <feMerge>
        <feMergeNode in="glow"/>
        <feMergeNode in="SourceGraphic"/>
      </feMerge>
    </filter>
  </defs>
  <path d="M 66.45 182.79 L 104.21 182.79 L 104.21 300.69 L 170.48 300.69 L 170.48 329.21 L 66.45 329.21 L 66.45 182.79 Z M 194.43 182.79 L 296.30 182.79 L 296.30 211.34 L 232.18 211.34 L 232.18 238.58 L 292.50 238.58 L 292.50 267.14 L 232.18 267.14 L 232.18 329.21 L 194.43 329.21 L 194.43 182.79 Z M 413.22 254.49 L 464.00 329.21 L 424.68 329.21 L 390.47 279.19 L 356.52 329.21 L 317.01 329.21 L 367.81 254.49 L 318.95 182.79 L 358.40 182.79 L 390.47 229.95 L 422.42 182.79 L 462.05 182.79 L 413.22 254.49 Z" fill="url(#lfxGradient)" filter="url(#softGlow)"/>
</svg>
